<svg width="85" height="84" viewBox="0 0 85 84" fill="none" xmlns="http://www.w3.org/2000/svg">
<path d="M6.08691 61.7216L8.0298 60.6027L6.93505 58.708L7.83732 58.1907L8.93207 60.0854L10.875 58.9666L11.4524 59.9591L9.50953 61.0779L10.6043 62.9727L9.70201 63.496L8.60726 61.6013L6.66437 62.7261L6.08691 61.7216Z" fill="white"/>
<path d="M0.0122671 44.6743C-0.10202 43.1103 0.583705 41.7028 2.00929 41.0171L2.11756 42.4968C1.34763 42.9539 1.02281 43.6938 1.08898 44.59C1.19725 46.0818 2.34012 47.0803 4.03639 46.954C5.73266 46.8277 6.71914 45.6668 6.61087 44.181C6.5447 43.2848 6.11161 42.599 5.28153 42.2622L5.17325 40.7825C6.68305 41.2456 7.56126 42.5389 7.68157 44.1028C7.83796 46.2202 6.38831 48.0548 4.13264 48.2232C1.88297 48.3856 0.168661 46.7916 0.0122671 44.6743Z" fill="white"/>
<path d="M8.36095 34.4306C8.00605 36.0908 6.55039 37.1014 4.72179 36.7104C2.89319 36.3194 1.99693 34.7555 2.35183 33.0953C2.70672 31.4351 4.16238 30.3704 5.99098 30.7614C7.81958 31.1524 8.71584 32.7584 8.36095 34.4306ZM7.31431 34.2081C7.5068 33.3058 7.04965 32.2832 5.72632 32.0005C4.40299 31.7178 3.58493 32.4396 3.39244 33.3419C3.19996 34.2502 3.65711 35.2006 4.98645 35.4833C6.30978 35.766 7.12183 35.1164 7.31431 34.2081Z" fill="white"/>
<path d="M9.11871 22.8034C8.15028 22.2981 7.37432 22.5688 6.95928 23.3688C6.53822 24.1748 6.7668 24.9628 7.73523 25.4681L10.6947 27.0019L10.1293 28.0967L4.83594 25.3538L5.40136 24.259L6.00889 24.5718C5.76227 23.9944 5.80437 23.2725 6.13521 22.6349C6.77883 21.3958 8.042 20.8665 9.52173 21.6364L12.6436 23.2545L12.0782 24.3432L9.11871 22.8034Z" fill="white"/>
<path d="M11.3332 16.7403L10.8761 17.2756L10.1122 16.626L10.5693 16.0906L9.43848 15.1282L10.2445 14.1778L11.3754 15.1402L12.3137 14.0334L13.0776 14.6831L12.1393 15.7899L14.6536 17.9313C14.9904 18.22 15.2431 18.208 15.5799 17.811L16.0732 17.2335L16.8551 17.9012L16.2235 18.641C15.5378 19.4471 14.7679 19.6636 13.8476 18.8756L11.3332 16.7403Z" fill="white"/>
<path d="M17.6246 9.13704C18.4367 8.54154 19.2728 8.51147 19.8623 8.68591L19.351 7.98815L20.3555 7.24829L23.8984 12.0484L22.8999 12.7882L22.3706 12.0724C22.3706 12.704 22.0758 13.5161 21.2758 14.1055C20.0307 15.0259 18.2803 14.7431 17.1855 13.2634C16.0908 11.7837 16.3614 10.0634 17.6246 9.13704ZM18.4667 9.84081C17.7269 10.3882 17.4261 11.4709 18.1901 12.5055C18.954 13.5401 20.1149 13.6183 20.8548 13.0709C21.6066 12.5175 21.8773 11.4168 21.1134 10.3762C20.3555 9.35359 19.2186 9.28742 18.4667 9.84081Z" fill="white"/>
<path d="M27.5075 3.65724C28.8729 3.12791 30.0218 3.46475 30.7858 4.5174L29.5466 4.99861C29.1496 4.53545 28.5722 4.36702 27.8865 4.63169C26.9601 4.9926 26.6052 5.91291 27.0744 7.12797C27.5436 8.34904 28.4278 8.80018 29.3542 8.43927C30.0399 8.1746 30.3467 7.70542 30.3406 7.04977L31.5798 6.56856C31.688 7.77761 31.0925 8.87837 29.7271 9.40771C28.1331 10.0213 26.5631 9.32951 25.8894 7.57911C25.2157 5.84073 25.9075 4.27078 27.5075 3.65724Z" fill="white"/>
<path d="M35.2192 2.64666L34.5215 2.74892L34.3711 1.7504L35.0688 1.64815L34.8463 0.180454L36.0794 0L36.302 1.46769L37.7396 1.25115L37.8899 2.24966L36.4523 2.46621L36.9396 5.73242C37.0057 6.17153 37.2042 6.32792 37.7155 6.24973L38.4674 6.13544L38.6178 7.152L37.6554 7.29636C36.6087 7.45275 35.8869 7.1159 35.7065 5.91288L35.2192 2.64666Z" fill="white"/>
<path d="M56.3926 6.2978C56.7054 5.25117 56.2964 4.54138 55.4302 4.28273C54.558 4.02408 53.8242 4.391 53.5174 5.44365L52.567 8.63769L51.394 8.28881L52.3444 5.09477C52.6572 4.04814 52.2482 3.33835 51.388 3.0797C50.5158 2.82105 49.782 3.18798 49.4752 4.24062L48.5248 7.43466L47.3398 7.07977L49.0421 1.35938L50.2271 1.70825L50.0346 2.3639C50.5579 2.00901 51.2617 1.91878 51.9474 2.11728C52.8497 2.38796 53.4933 2.99549 53.6678 3.86167C54.2272 3.27219 55.1655 3.07369 55.9956 3.32031C57.337 3.71731 58.1009 4.86018 57.6257 6.46021L56.6212 9.8347L55.4482 9.48582L56.3926 6.2978Z" fill="white"/>
<path d="M61.8835 13.3717C60.4819 12.3912 60.1451 10.6709 61.2218 9.13704C62.2985 7.60318 63.9828 7.31446 65.4264 8.33102C66.8159 9.30547 67.1227 10.9656 66.1181 12.3972C65.9978 12.5657 65.8775 12.7221 65.7332 12.8664L62.0038 10.2498C61.5105 11.104 61.7451 12.0002 62.485 12.5175C63.1045 12.9506 63.664 12.8965 64.1151 12.6439L65.2038 13.4078C64.3316 14.0695 63.0805 14.2138 61.8835 13.3717ZM62.5752 9.44382L65.276 11.3386C65.7873 10.5747 65.5287 9.67841 64.7768 9.14907C64.097 8.67388 63.2249 8.74606 62.5752 9.44382Z" fill="white"/>
<path d="M77.8786 21.107L75.9477 22.2498L77.0605 24.1326L76.1642 24.6619L75.0514 22.7792L73.1206 23.916L72.5371 22.9295L74.468 21.7927L73.3552 19.9099L74.2514 19.3806L75.3642 21.2634L77.2951 20.1265L77.8786 21.107Z" fill="white"/>
<path d="M84.1159 38.0938C84.2482 39.6578 83.5746 41.0713 82.155 41.7691L82.0287 40.2893C82.7926 39.8202 83.1114 39.0803 83.0332 38.184C82.9069 36.6983 81.758 35.7058 80.0677 35.8502C78.3715 35.9945 77.397 37.1615 77.5233 38.6532C77.6015 39.5495 78.0346 40.2292 78.8707 40.56L78.997 42.0398C77.4812 41.5886 76.591 40.3074 76.4587 38.7435C76.2782 36.6261 77.7098 34.7795 79.9655 34.593C82.2091 34.4005 83.9415 35.9825 84.1159 38.0938Z" fill="white"/>
<path d="M75.863 48.4218C76.1998 46.7556 77.6495 45.733 79.4841 46.1059C81.3187 46.4789 82.233 48.0368 81.8902 49.703C81.5533 51.3692 80.1037 52.4459 78.2691 52.073C76.4344 51.7 75.5201 50.1 75.863 48.4218ZM76.9096 48.6323C76.7232 49.5346 77.1923 50.5571 78.5217 50.8278C79.851 51.0985 80.6631 50.3647 80.8435 49.4624C81.03 48.5481 80.5608 47.6037 79.2315 47.333C77.9021 47.0684 77.0961 47.724 76.9096 48.6323Z" fill="white"/>
<path d="M75.2133 60.0491C76.1878 60.5424 76.9577 60.2657 77.3668 59.4656C77.7758 58.6536 77.5412 57.8716 76.5668 57.3724L73.5953 55.8686L74.1547 54.7678L79.4781 57.4626L78.9187 58.5634L78.3111 58.2566C78.5638 58.8341 78.5277 59.5559 78.2029 60.1935C77.5713 61.4386 76.3141 61.98 74.8284 61.2281L71.6885 59.6401L72.2419 58.5513L75.2133 60.0491Z" fill="white"/>
<path d="M73.0593 66.1302L73.5104 65.5888L74.2804 66.2325L73.8293 66.7738L74.9661 67.7242L74.1661 68.6806L73.0292 67.7302L72.0969 68.843L71.327 68.1994L72.2593 67.0866L69.7269 64.9693C69.3841 64.6866 69.1314 64.6986 68.8006 65.0956L68.3134 65.6791L67.5254 65.0174L68.151 64.2715C68.8307 63.4595 69.5946 63.2369 70.5269 64.0129L73.0593 66.1302Z" fill="white"/>
<path d="M66.8416 73.7997C66.0356 74.4072 65.1995 74.4433 64.61 74.2749L65.1333 74.9666L64.1408 75.7185L60.5498 70.9545L61.5423 70.2027L62.0776 70.9124C62.0776 70.2808 62.3604 69.4688 63.1544 68.8673C64.3935 67.9349 66.1499 68.1996 67.2567 69.6673C68.3574 71.141 68.0928 72.8553 66.8416 73.7997ZM65.9875 73.1019C66.7213 72.5486 67.0161 71.4598 66.2401 70.4312C65.4642 69.4026 64.3093 69.3365 63.5694 69.8899C62.8235 70.4493 62.5589 71.5561 63.3348 72.5846C64.1047 73.6072 65.2416 73.6614 65.9875 73.1019Z" fill="white"/>
<path d="M57.0128 79.3637C55.6534 79.905 54.5045 79.5802 53.7285 78.5336L54.9676 78.0403C55.3706 78.4975 55.9481 78.6659 56.6338 78.3952C57.5602 78.0283 57.903 77.102 57.4218 75.8929C56.9406 74.6779 56.0564 74.2327 55.13 74.6057C54.4443 74.8764 54.1436 75.3455 54.1616 76.0012L52.9225 76.4944C52.8022 75.2854 53.3917 74.1786 54.7451 73.6372C56.3331 73.0056 57.909 73.6854 58.6008 75.4298C59.2805 77.1621 58.6008 78.7381 57.0128 79.3637Z" fill="white"/>
<path d="M49.2883 80.4465L49.9801 80.3382L50.1364 81.3307L49.4387 81.439L49.6733 82.9007L48.4462 83.0932L48.2116 81.6315L46.78 81.8601L46.6236 80.8676L48.0552 80.639L47.5379 77.3788C47.4657 76.9397 47.2672 76.7833 46.7559 76.8675L46.0101 76.9878L45.8477 75.9712L46.8101 75.8209C47.8567 75.6524 48.5785 75.9893 48.771 77.1863L49.2883 80.4465Z" fill="white"/>
<path d="M28.1022 77.0058C27.8014 78.0585 28.2164 78.7622 29.0826 79.0089C29.9548 79.2615 30.6826 78.8825 30.9894 77.8299L31.9097 74.6238L33.0887 74.9607L32.1684 78.1667C31.8676 79.2194 32.2827 79.9231 33.1488 80.1698C34.021 80.4224 34.7489 80.0435 35.0496 78.9908L35.9699 75.7847L37.1549 76.1276L35.5128 81.866L34.3278 81.5232L34.5143 80.8675C33.997 81.2284 33.2872 81.3307 32.6015 81.1322C31.6932 80.8735 31.0496 80.272 30.8631 79.4058C30.3097 80.0013 29.3713 80.2059 28.5413 79.9653C27.1999 79.5803 26.4179 78.4434 26.8811 76.8434L27.8495 73.4629L29.0285 73.7997L28.1022 77.0058Z" fill="white"/>
<path d="M22.5442 69.9742C23.9517 70.9426 24.3126 72.663 23.248 74.2028C22.1833 75.7487 20.5051 76.0495 19.0494 75.051C17.6479 74.0885 17.3291 72.4344 18.3216 70.9908C18.4359 70.8223 18.5562 70.6659 18.7005 70.5156L22.454 73.0961C22.9412 72.2359 22.7006 71.3456 21.9487 70.8283C21.3231 70.4013 20.7697 70.4614 20.3186 70.7141L19.2238 69.9622C20.09 69.3005 21.3351 69.1441 22.5442 69.9742ZM21.8825 73.9141L19.1637 72.0434C18.6584 72.8133 18.9231 73.7096 19.687 74.2269C20.3727 74.6961 21.2449 74.6119 21.8825 73.9141Z" fill="white"/>
</svg>
